<?xml version="1.0" encoding="UTF-8"?>
<svg clip-rule="evenodd" fill-rule="evenodd" stroke-linejoin="round" stroke-miterlimit="2" version="1.1" viewBox="0 0 493 493" xml:space="preserve" xmlns="http://www.w3.org/2000/svg" xmlns:xlink="http://www.w3.org/1999/xlink"><rect width="493" height="493" fill="#ebebeb"/><path d="m71.469 47.766v409.98l273.14-2.6812c0.99038 0.0163 24.718-62.278 24.718-62.278s-219.73 0.21271-221.7-1.6053v-80.55h69.311c38.791 0 72.161-3.9735 100.11-11.92 27.952-8.1556 50.914-18.715 68.884-31.68 17.969-12.965 31.232-27.604 39.789-43.915 8.5569-16.52 12.836-33.146 12.836-49.875 0-22.794-5.7039-42.137-17.113-58.03-11.409-15.893-26.812-28.86-46.208-38.897-19.11-10.038-41.359-17.251-66.744-21.643-25.385-4.6006-51.911-6.9023-79.578-6.9023zm76.157 46.425h77.867c42.214 0 75.015 7.0065 98.403 21.017 23.674 14.011 35.512 34.191 35.512 60.54 0 29.277-12.265 51.128-36.795 65.558-24.244 14.429-58.9 21.645-103.97 21.645h-71.021z" fill="#333" stroke-width=".90021"/></svg>
